<svg width="511" height="511" viewBox="0 0 511 511" fill="none" xmlns="http://www.w3.org/2000/svg">
<g clip-path="url(#clip0)">
<path d="M387.38 183.466L372.048 201.526L342.064 236.872L341.982 236.958L220.688 236.704L158.848 236.533L124.353 183.466C130.291 173.749 137.672 164.988 146.242 157.49C172.203 135.635 204.394 122.522 238.234 120.011C239.852 119.84 241.556 119.668 243.26 119.582C247.432 119.329 251.608 119.157 255.866 119.157C270.734 119.142 285.546 120.916 299.989 124.441C314.166 127.841 327.828 133.108 340.618 140.111C359.735 150.214 375.862 165.167 387.38 183.466Z" fill="#FACFA4"/>
<path d="M392.148 236.958L342.064 236.872L220.688 236.704L158.848 236.533L124.353 183.466C130.291 173.749 137.672 164.988 146.242 157.49C172.203 135.635 204.394 122.522 238.234 120.011C239.852 119.84 241.556 119.668 243.26 119.583C253.772 120.304 264.202 121.926 274.434 124.441C288.611 127.841 302.277 133.109 315.063 140.111C334.184 150.214 350.311 165.167 361.829 183.466L372.048 201.527L392.148 236.958Z" fill="#FACE9F"/>
<path d="M451.775 374.69C451.981 392.349 447.673 409.763 439.254 425.285L357.4 487.297C324.597 497.805 290.308 502.925 255.867 502.457C251.523 502.457 247.265 502.371 243.004 502.203C219.188 501.607 195.512 498.41 172.39 492.662C167.879 491.469 163.364 490.19 159.106 488.829C157.488 488.319 155.866 487.808 154.334 487.297L72.4793 425.285C68.0538 417.269 64.7863 408.667 62.7704 399.734C60.8599 391.523 59.9202 383.12 59.9592 374.69C59.9592 371.368 60.1268 367.96 60.3842 364.638C62.9108 338.924 71.5552 314.188 85.5959 292.493C72.2219 251.61 60.2126 188.577 76.7371 173.671C79.0844 171.402 82.2466 170.177 85.5101 170.263C105.189 170.263 139.174 190.706 164.3 207.827C167.622 210.128 170.858 212.342 173.841 214.471C195.547 204.127 219.012 197.97 243.004 196.329C247.265 195.989 251.523 195.818 255.867 195.818C259.36 195.818 262.85 195.904 266.344 196.157C285.422 197.218 304.232 201.152 322.136 207.827C327.587 209.87 332.867 212.085 338.064 214.557C345.898 209.02 355.185 202.634 364.894 196.5C378.966 187.283 393.986 179.601 409.699 173.585C415.088 171.628 420.745 170.505 426.477 170.263C455.182 170.263 441.555 246.241 426.305 292.836C442.233 317.225 451.053 345.572 451.775 374.69V374.69Z" fill="#FACE9F"/>
<path d="M426.224 374.69C426.43 392.349 422.118 409.763 413.7 425.285L331.845 487.297C303.116 496.569 273.187 501.591 243.004 502.203C219.188 501.607 195.512 498.409 172.39 492.662C167.879 491.469 163.364 490.19 159.106 488.829C157.488 488.318 155.866 487.808 154.334 487.297L72.4793 425.285C68.0538 417.269 64.7863 408.667 62.7704 399.734C60.8599 391.523 59.9202 383.12 59.9592 374.69C59.9592 371.368 60.1268 367.96 60.3842 364.638C62.9108 338.923 71.5552 314.187 85.5959 292.493C72.2219 251.61 60.2126 188.577 76.7371 173.671C102.21 184.206 126.248 197.916 148.286 214.471C153.484 212.003 158.849 209.788 164.3 207.827C185.414 199.92 207.767 195.853 230.312 195.818C233.806 195.818 237.299 195.904 240.789 196.157C241.53 196.173 242.271 196.231 243.004 196.329C267.112 197.997 290.686 204.181 312.509 214.557C315.492 212.428 318.729 210.213 322.136 207.827C327.587 209.87 332.867 212.085 338.064 214.557C345.898 209.02 355.185 202.633 364.894 196.5C378.966 187.283 393.986 179.601 409.699 173.585C426.224 188.663 414.128 252.035 400.754 292.836C416.678 317.225 425.498 345.571 426.224 374.69V374.69Z" fill="#FACFA4"/>
<path d="M156.891 223.502C134.206 236.825 114.215 254.273 97.9476 274.947C85.681 232.36 83.4663 197.182 87.5565 187.47C94.5398 188.238 113.79 193.689 156.891 223.502V223.502Z" fill="#FE86A7"/>
<path d="M172.309 449.308C172.344 463.571 167.708 477.452 159.106 488.83C157.488 488.319 155.866 487.808 154.334 487.297L72.4793 425.286C68.0538 417.269 64.7864 408.668 62.7705 399.735C74.7135 389.051 90.1853 383.167 106.211 383.21C142.699 383.245 172.274 412.816 172.309 449.308Z" fill="#E1A076"/>
<path d="M238.832 127.677C238.84 149.867 224.522 169.522 203.4 176.322C182.279 183.122 159.184 175.511 146.243 157.49C172.204 135.635 204.395 122.522 238.235 120.011C238.652 122.542 238.851 125.107 238.832 127.677Z" fill="#E1A076"/>
<path d="M341.043 144.712C341.062 156.706 332.738 167.101 321.025 169.698C309.316 172.298 297.373 166.403 292.319 155.524C287.262 144.646 290.452 131.716 299.989 124.44C314.166 127.84 327.829 133.108 340.618 140.111C340.887 141.632 341.027 143.168 341.043 144.712V144.712Z" fill="#E1A076"/>
<path d="M277.757 120.436C278.24 107.05 276.864 93.6646 273.67 80.6571C270.906 67.7432 275.807 54.3887 286.276 46.3292C300.839 36.5346 320.518 47.8655 330.995 55.5311C338.591 61.0796 349.251 59.4225 354.799 51.8231C360.352 44.2276 358.691 33.5674 351.095 28.0189C308.505 -3.1585 278.353 10.6405 267.28 17.967C244.899 33.9612 234.371 61.875 240.621 88.6659C243.105 98.7725 244.166 109.179 243.772 119.582L277.757 120.436Z" fill="#FACE9F"/>
<path d="M162.171 468.387C162.171 444.867 135.477 417.281 102.545 417.281C69.6172 417.281 42.9238 444.867 42.9238 468.387C42.9238 491.906 69.6172 502.457 102.545 502.457C135.477 502.457 162.171 491.906 162.171 468.387V468.387Z" fill="#FACE9F"/>
<path d="M468.809 468.387C468.809 491.894 442.151 502.457 409.188 502.457C404.918 502.481 400.657 502.282 396.41 501.861C369.577 499.392 349.562 488.744 349.562 468.387C349.562 448.029 369.577 424.607 396.41 418.642C400.61 417.753 404.891 417.292 409.188 417.281C442.151 417.281 468.809 444.879 468.809 468.387V468.387Z" fill="#FACE9F"/>
<path d="M443.258 468.386C443.258 488.743 423.24 499.392 396.41 501.86C369.577 499.392 349.562 488.743 349.562 468.386C349.562 448.029 369.577 424.607 396.41 418.641C423.24 424.607 443.258 448.029 443.258 468.386V468.386Z" fill="#FACE9F"/>
<path d="M278.855 374.008L266.078 387.639C260.358 393.09 251.367 393.09 245.643 387.639L232.865 374.008C230.686 371.871 229.82 368.729 230.596 365.777C232.237 361.012 236.686 357.788 241.724 357.713C242.176 357.667 242.633 357.647 243.085 357.655H268.644C269.096 357.647 269.552 357.667 270.004 357.713C275.034 357.811 279.472 361.028 281.133 365.777C281.905 368.729 281.039 371.871 278.855 374.008V374.008Z" fill="#FE86A7"/>
<path d="M375.114 229.889C375.114 262.821 348.42 289.514 315.492 289.514C282.56 289.514 255.867 262.821 255.867 229.889C255.824 217.836 259.481 206.065 266.344 196.157C291.22 197.565 315.582 203.815 338.064 214.557C345.897 209.02 355.185 202.634 364.894 196.5C371.6 206.338 375.164 217.981 375.114 229.889V229.889Z" fill="#E1A076"/>
<path d="M413.957 275.204C397.686 254.453 377.66 236.946 354.928 223.587C361.829 218.815 368.13 214.643 374.006 210.896C403.99 192.238 418.386 188.152 424.434 187.47C428.438 197.182 426.305 232.528 413.957 275.204V275.204Z" fill="#FE86A7"/>
<path d="M255.867 510.977C220.494 511.406 185.285 506.134 151.589 495.361C148.707 494.382 146.571 491.937 145.978 488.954C145.389 485.968 146.434 482.895 148.723 480.887C151.012 478.883 154.197 478.251 157.079 479.234C189.005 489.407 222.362 494.374 255.867 493.941C289.372 494.374 322.729 489.407 354.651 479.234C357.533 478.251 360.718 478.883 363.011 480.887C365.3 482.895 366.345 485.968 365.756 488.954C365.163 491.937 363.023 494.382 360.141 495.361C326.449 506.134 291.24 511.406 255.867 510.977V510.977Z" fill="#504E5B"/>
<path d="M439.247 433.805C436.237 433.801 433.453 432.214 431.92 429.621C430.388 427.032 430.337 423.823 431.788 421.187C439.504 406.917 443.45 390.915 443.259 374.69C442.573 347.159 434.201 320.372 419.084 297.351C417.743 295.211 417.423 292.583 418.211 290.185C433.893 242.253 439.379 193.217 430.439 180.884C429.612 179.5 428.087 178.693 426.477 178.783C411.579 178.783 381.154 194.352 343.005 221.502C340.49 223.295 337.199 223.584 334.411 222.254C284.798 198.497 227.099 198.469 177.463 222.176C174.687 223.49 171.416 223.205 168.913 221.424C116.516 184.32 94.1624 178.783 85.5103 178.783C83.8843 178.689 82.3442 179.508 81.5098 180.904C72.6119 193.178 78.0746 242.046 93.6867 289.853C94.4743 292.255 94.1546 294.879 92.8133 297.02C77.6028 320.126 69.169 347.034 68.475 374.69C68.2839 390.911 72.2298 406.917 79.9462 421.184C82.2116 425.313 80.7026 430.491 76.5774 432.756C72.4521 435.022 67.274 433.513 65.0086 429.387C55.9081 412.606 51.2408 393.781 51.4397 374.69C52.048 345.178 60.6416 316.379 76.3044 291.354C70.7131 273.192 48.8702 196.886 67.7185 170.903C71.7541 165.073 78.4255 161.642 85.5103 161.747C103.887 161.747 133.898 176.19 174.75 204.692C226.421 181.571 285.508 181.598 337.16 204.77C377.886 176.221 407.921 161.747 426.477 161.747C433.55 161.642 440.21 165.07 444.23 170.887C463.152 196.988 441.2 273.512 435.593 291.701C451.159 316.632 459.694 345.307 460.294 374.69C460.493 393.781 455.826 412.606 446.725 429.387C445.228 432.117 442.362 433.809 439.247 433.805V433.805Z" fill="#504E5B"/>
<path d="M124.341 191.985C121.268 191.981 118.438 190.328 116.929 187.653C115.42 184.978 115.466 181.695 117.053 179.067C142.133 137.499 196.615 110.642 255.866 110.642C315.024 110.642 369.51 137.495 394.671 179.052C397.108 183.076 395.821 188.316 391.797 190.753C387.774 193.19 382.533 191.903 380.096 187.879C357.953 151.309 309.194 127.677 255.866 127.677C202.46 127.677 153.693 151.302 131.644 187.868C130.1 190.426 127.328 191.989 124.341 191.985V191.985Z" fill="#504E5B"/>
<path d="M277.768 128.952L277.437 128.948C272.735 128.769 269.069 124.811 269.249 120.112C269.709 107.514 268.41 94.9163 265.392 82.6808C261.797 66.285 268.118 49.3043 281.554 39.2485C295.521 29.8555 314.869 33.1853 336.021 48.6532C338.478 50.4507 341.706 50.7977 344.49 49.5656C347.274 48.3373 349.189 45.7132 349.516 42.6875C349.844 39.6618 348.53 36.6907 346.073 34.8971C309.32 7.99309 283.882 17.1989 271.978 25.0713C252.533 39.0262 243.417 63.3256 248.887 86.6268C251.574 97.5131 252.716 108.723 252.28 119.929C252.011 124.593 248.1 128.203 243.429 128.094C241.171 128.004 239.042 127.018 237.51 125.357C235.981 123.696 235.17 121.493 235.264 119.235C235.63 109.628 234.648 100.016 232.343 90.6857C225.321 60.4324 237.237 28.9314 262.519 10.9018C275.129 2.55771 309.379 -13.07 356.125 21.1409C363.576 26.4983 367.581 35.439 366.622 44.563C365.659 53.6908 359.88 61.5983 351.477 65.2868C343.075 68.9754 333.339 67.872 325.973 62.4015C319.009 57.3131 301.658 46.2357 291.037 53.4023C283.539 59.4654 280.034 69.1977 281.944 78.6491C285.329 92.4209 286.783 106.59 286.268 120.76C286.093 125.329 282.342 128.948 277.768 128.952V128.952Z" fill="#504E5B"/>
<path d="M102.545 510.976C60.5167 510.976 34.4043 494.655 34.4043 468.386C34.4043 440.812 64.1663 408.761 102.545 408.761C140.928 408.761 170.69 440.812 170.69 468.386C170.69 494.655 144.578 510.976 102.545 510.976V510.976ZM102.545 425.796C75.0215 425.796 51.4396 449.222 51.4396 468.386C51.4396 487.227 77.8445 493.941 102.545 493.941C127.246 493.941 153.655 487.227 153.655 468.386C153.655 449.222 130.069 425.796 102.545 425.796Z" fill="#504E5B"/>
<path d="M409.188 510.976C367.155 510.976 341.043 494.655 341.043 468.386C341.043 440.812 370.805 408.761 409.188 408.761C447.567 408.761 477.329 440.812 477.329 468.386C477.329 494.655 451.217 510.976 409.188 510.976V510.976ZM409.188 425.796C381.66 425.796 358.078 449.218 358.078 468.386C358.078 487.227 384.483 493.941 409.188 493.941C433.889 493.941 460.294 487.227 460.294 468.386C460.294 449.222 436.712 425.796 409.188 425.796Z" fill="#504E5B"/>
<path d="M102.545 510.976C88.442 510.961 77.0097 499.529 76.9941 485.422V468.386C76.9941 463.684 80.8075 459.871 85.5098 459.871C90.2161 459.871 94.0294 463.684 94.0294 468.386V485.422C94.0294 490.128 97.8428 493.941 102.545 493.941C107.251 493.941 111.065 490.128 111.065 485.422V468.386C111.065 463.684 114.878 459.871 119.58 459.871C124.287 459.871 128.1 463.684 128.1 468.386V485.422C128.084 499.529 116.652 510.961 102.545 510.976Z" fill="#504E5B"/>
<path d="M409.188 510.976C395.081 510.961 383.648 499.529 383.633 485.422V468.386C383.633 463.684 387.446 459.871 392.149 459.871C396.855 459.871 400.668 463.684 400.668 468.386V485.422C400.668 490.128 404.481 493.941 409.188 493.941C413.89 493.941 417.703 490.128 417.703 485.422V468.386C417.703 463.684 421.517 459.871 426.223 459.871C430.925 459.871 434.739 463.684 434.739 468.386V485.422C434.723 499.529 423.291 510.961 409.188 510.976Z" fill="#504E5B"/>
<path d="M255.867 400.245C249.691 400.343 243.748 397.886 239.44 393.461L226.67 379.833C221.847 374.885 220.482 367.52 223.208 361.172C226.857 353.561 234.667 348.839 243.097 349.139H268.636C277.066 348.839 284.876 353.561 288.522 361.168C291.251 367.52 289.883 374.885 285.056 379.833L272.302 393.461C267.989 397.886 262.047 400.339 255.867 400.245V400.245ZM243.097 366.175C240.196 366.175 238.925 367.586 238.824 367.988L251.874 381.814C254.26 383.538 257.481 383.538 259.867 381.814L272.617 368.187C272.812 367.59 271.537 366.175 268.636 366.175H243.097Z" fill="#504E5B"/>
<path d="M230.312 459.871C211.502 459.847 196.261 444.606 196.241 425.796V417.281C196.241 412.574 200.055 408.761 204.761 408.761C209.463 408.761 213.276 412.574 213.276 417.281V425.796C213.276 435.205 220.903 442.831 230.312 442.831C239.72 442.831 247.347 435.205 247.347 425.796V391.726C247.347 387.023 251.16 383.21 255.867 383.21C260.569 383.21 264.382 387.023 264.382 391.726V425.796C264.363 444.606 249.121 459.847 230.312 459.871V459.871Z" fill="#504E5B"/>
<path d="M281.421 459.871C262.612 459.847 247.366 444.606 247.347 425.796V391.726C247.347 387.023 251.16 383.21 255.866 383.21C260.569 383.21 264.382 387.023 264.382 391.726V425.796C264.382 435.205 272.013 442.831 281.421 442.831C290.826 442.831 298.456 435.205 298.456 425.796V417.281C298.456 412.574 302.27 408.761 306.972 408.761C311.678 408.761 315.492 412.574 315.492 417.281V425.796C315.472 444.606 300.227 459.847 281.421 459.871V459.871Z" fill="#504E5B"/>
<path d="M204.753 340.62C200.76 340.612 197.306 337.836 196.44 333.941C194.592 327.219 190.166 321.499 184.123 318.021C175.463 313.447 163.403 314.149 148.239 320.076C143.856 321.787 138.912 319.623 137.201 315.241C135.485 310.858 137.649 305.918 142.032 304.202C162.186 296.345 179.116 295.983 192.366 303.11C202.694 308.979 210.181 318.808 213.085 330.326C213.624 332.841 212.996 335.465 211.378 337.466C209.76 339.466 207.323 340.624 204.753 340.62V340.62Z" fill="#504E5B"/>
<path d="M298.464 340.62C295.891 340.624 293.454 339.466 291.836 337.466C290.218 335.465 289.59 332.841 290.128 330.326C293.037 318.808 300.519 308.979 310.848 303.11C324.109 295.975 341.035 296.342 361.182 304.202C365.564 305.918 367.728 310.858 366.017 315.241C364.301 319.623 359.361 321.787 354.974 320.076C339.713 314.114 327.583 313.447 318.927 318.114C312.965 321.573 308.606 327.238 306.781 333.882C305.943 337.809 302.476 340.616 298.464 340.62V340.62Z" fill="#504E5B"/>
<path d="M128.093 357.655C126.26 357.659 124.474 357.062 123.008 355.963C96.4551 339.485 65.6403 331.188 34.4044 332.104C29.702 332.104 25.8887 328.287 25.8887 323.585C25.8887 318.882 29.702 315.065 34.4044 315.065C96.1587 315.065 131.727 341.209 133.212 342.324C136.144 344.523 137.341 348.356 136.179 351.834C135.017 355.316 131.758 357.659 128.093 357.655V357.655Z" fill="#504E5B"/>
<path d="M34.412 400.245C30.6572 400.249 27.3429 397.793 26.2551 394.198C25.1633 390.607 26.5553 386.723 29.6785 384.641C57.062 366.381 108.87 366.175 111.065 366.175C115.767 366.175 119.581 369.988 119.581 374.69C119.581 379.397 115.767 383.21 111.065 383.21C110.581 383.21 62.2128 383.425 39.13 398.814C37.7341 399.746 36.0925 400.245 34.412 400.245V400.245Z" fill="#504E5B"/>
<path d="M383.649 357.643C379.983 357.651 376.724 355.312 375.558 351.834C374.396 348.356 375.589 344.523 378.521 342.324C380.003 341.209 415.575 315.065 477.329 315.065C482.031 315.065 485.845 318.882 485.845 323.585C485.845 328.287 482.031 332.104 477.329 332.104C446.089 331.184 415.274 339.485 388.725 355.967C387.255 357.055 385.477 357.643 383.649 357.643V357.643Z" fill="#504E5B"/>
<path d="M477.321 400.245C475.64 400.245 473.999 399.746 472.603 398.814C449.52 383.425 401.152 383.21 400.668 383.21C395.962 383.21 392.148 379.397 392.148 374.69C392.148 369.988 395.962 366.175 400.668 366.175C402.863 366.175 454.671 366.381 482.054 384.641C485.178 386.723 486.57 390.607 485.478 394.198C484.39 397.793 481.076 400.249 477.321 400.245V400.245Z" fill="#504E5B"/>
</g>
<defs>
<clipPath id="clip0">
<rect width="511" height="511" fill="white"/>
</clipPath>
</defs>
</svg>
