<svg width="758" height="143" viewBox="0 0 758 143" fill="none" xmlns="http://www.w3.org/2000/svg">
<path d="M61 77.6H63L92.2 1.59999L119.8 2.4L120.6 88.4L124.4 140H97.4L98.4 88L96.2 35.4L72.2 101.6L47.6 102.8L25.2 35.4L23.4 88L24.8 140H1.01328e-06L2.8 91.4L4 5.59999L35.8 0.599995L61 77.6ZM168.014 140C160.147 140 153.681 137.533 148.614 132.6C143.681 127.533 141.214 120.8 141.214 112.4C141.214 103.867 145.081 96.5333 152.814 90.4C160.547 84.1333 169.947 81 181.014 81H194.614V77.6C194.614 71.0667 193.281 66.6 190.614 64.2C187.947 61.8 182.947 60.6 175.614 60.6C172.547 60.6 168.881 61.2667 164.614 62.6C160.481 63.8 155.814 65.7333 150.614 68.4L144.814 52.6C150.547 48.6 157.481 45 165.614 41.8C173.881 38.6 180.681 37 186.014 37C206.947 37 217.414 47.1333 217.414 67.4V106.6C217.414 114.067 219.747 122.4 224.414 131.6L203.214 140.6C199.881 134.2 197.414 128.467 195.814 123.4C188.481 134.467 179.214 140 168.014 140ZM176.414 119.6C181.747 119.6 187.814 116.867 194.614 111.4V98C187.547 96.4 181.814 95.6 177.414 95.6C169.014 95.6 164.814 99.3333 164.814 106.8C164.814 110.667 165.881 113.8 168.014 116.2C170.147 118.467 172.947 119.6 176.414 119.6ZM235.764 98.2C235.764 81.1333 240.364 66.6667 249.564 54.8C258.764 42.9333 269.497 37 281.764 37C294.164 37 303.764 41 310.564 49C317.497 57 320.964 67.6 320.964 80.8C320.964 98.4 316.497 113.067 307.564 124.8C298.764 136.4 287.631 142.2 274.164 142.2C263.097 142.2 253.897 138.067 246.564 129.8C239.364 121.4 235.764 110.867 235.764 98.2ZM298.564 91.2C298.564 71.8667 291.964 62.2 278.764 62.2C265.031 62.2 258.164 71.2667 258.164 89.4C258.164 98.8667 260.097 106.267 263.964 111.6C267.831 116.933 272.897 119.6 279.164 119.6C285.564 119.6 290.364 117.2 293.564 112.4C296.897 107.467 298.564 100.4 298.564 91.2Z" fill="#E1A076"/>
<path d="M326.648 25L328.848 1.99999H423.848L421.648 25L386.848 22L386.048 88L388.448 140H360.448L362.848 91.4L362.048 22.2L326.648 25ZM471.514 119.6C475.381 119.6 479.447 118.6 483.714 116.6C487.981 114.6 491.314 112.6 493.714 110.6L497.314 107.6L506.514 118.8C505.181 121.067 503.114 123.667 500.314 126.6C497.514 129.533 494.647 132.067 491.714 134.2C488.914 136.2 485.114 138.067 480.314 139.8C475.647 141.4 470.781 142.2 465.714 142.2C454.914 142.2 446.114 138.133 439.314 130C432.514 121.733 429.114 111.133 429.114 98.2C429.114 81.9333 433.847 67.6667 443.314 55.4C452.781 43.1333 463.847 37 476.514 37C486.247 37 493.781 39.7333 499.114 45.2C504.581 50.6667 507.314 58.3333 507.314 68.2C507.314 74.0667 506.314 80.7333 504.314 88.2L500.314 92.4L450.314 97C452.581 112.067 459.647 119.6 471.514 119.6ZM471.514 57.6C465.647 57.6 460.714 60 456.714 64.8C452.714 69.4667 450.381 75.4667 449.714 82.8L483.714 78.6C484.114 75.5333 484.314 73 484.314 71C484.314 62.0667 480.047 57.6 471.514 57.6ZM544.772 140C536.905 140 530.439 137.533 525.372 132.6C520.439 127.533 517.972 120.8 517.972 112.4C517.972 103.867 521.839 96.5333 529.572 90.4C537.305 84.1333 546.705 81 557.772 81H571.372V77.6C571.372 71.0667 570.039 66.6 567.372 64.2C564.705 61.8 559.705 60.6 552.372 60.6C549.305 60.6 545.639 61.2667 541.372 62.6C537.239 63.8 532.572 65.7333 527.372 68.4L521.572 52.6C527.305 48.6 534.239 45 542.372 41.8C550.639 38.6 557.439 37 562.772 37C583.705 37 594.172 47.1333 594.172 67.4V106.6C594.172 114.067 596.505 122.4 601.172 131.6L579.972 140.6C576.639 134.2 574.172 128.467 572.572 123.4C565.239 134.467 555.972 140 544.772 140ZM553.172 119.6C558.505 119.6 564.572 116.867 571.372 111.4V98C564.305 96.4 558.572 95.6 554.172 95.6C545.772 95.6 541.572 99.3333 541.572 106.8C541.572 110.667 542.639 113.8 544.772 116.2C546.905 118.467 549.705 119.6 553.172 119.6ZM676.522 89.4C676.522 80.2 675.722 74.0667 674.122 71C672.522 67.9333 668.789 66.4 662.922 66.4C657.055 66.4 650.389 68.7333 642.922 73.4V88L645.122 135L618.322 140L620.722 91.4C620.189 73.5333 618.722 57.5333 616.322 43.4L640.522 38.2C641.455 45.9333 642.122 53.4667 642.522 60.8C644.522 58.1333 646.789 55.5333 649.322 53C651.855 50.3333 655.855 47.4 661.322 44.2C666.789 40.8667 672.322 39.2 677.922 39.2C683.522 39.2 688.255 41 692.122 44.6C695.989 48.2 698.455 53.1333 699.522 59.4C710.589 45.9333 721.789 39.2 733.122 39.2C740.189 39.2 745.789 41.6 749.922 46.4C754.055 51.0667 756.122 57.4667 756.122 65.6L754.922 88L757.122 136L730.122 141L732.522 89.4C732.522 80.2 731.722 74.0667 730.122 71C728.522 67.9333 724.855 66.4 719.122 66.4C713.389 66.4 706.922 68.6 699.722 73L698.922 88L701.122 136L674.122 141L676.522 89.4Z" fill="#504E5B"/>
</svg>
