<svg width="39" height="37" viewBox="0 0 39 37" fill="none" xmlns="http://www.w3.org/2000/svg">
<g opacity="0.5">
<path d="M31.2355 16.7938C33.5648 21.3652 30.612 26.6177 25.0994 29.4266C19.5868 32.2354 14.0888 31.2888 11.7595 26.7173C10.6666 24.5724 10.8596 22.7317 11.6662 20.3251C12.5788 17.6027 13.8624 14.6063 16.7885 13.1154C20.0696 11.4436 23.521 12.1693 26.4442 13.4087C28.4323 14.2516 30.2926 14.9433 31.2355 16.7938ZM14.2711 25.4376C15.9007 28.6357 19.8784 28.7136 23.735 26.7486C27.5915 24.7836 29.8665 21.5198 28.237 18.3216C27.5316 16.9372 25.504 16.3693 24.019 15.871C22.0736 15.2182 20.4906 14.9745 18.3036 16.0889C16.1165 17.2033 15.3832 18.6271 14.7679 20.5847C14.2981 22.079 13.5657 24.0531 14.2711 25.4376Z" fill="#E1A076"/>
<circle cx="19.2673" cy="10.0617" r="4.31766" transform="rotate(-8.67165 19.2673 10.0617)" fill="#E1A076"/>
<circle cx="12.212" cy="14.2692" r="4.31766" transform="rotate(-36.3471 12.212 14.2692)" fill="#E1A076"/>
<circle cx="27.2336" cy="11.3246" r="4.28873" transform="rotate(-36.3471 27.2336 11.3246)" fill="#E1A076"/>
<circle cx="9.47364" cy="21.6205" r="4.23815" transform="rotate(-36.3471 9.47364 21.6205)" fill="#E1A076"/>
<circle cx="19.7338" cy="10.6192" r="2.55667" transform="rotate(-36.3471 19.7338 10.6192)" fill="white"/>
<circle cx="13.1652" cy="14.5801" r="2.55667" transform="rotate(-36.3471 13.1652 14.5801)" fill="white"/>
<circle cx="26.3118" cy="11.6628" r="2.14654" transform="rotate(-36.3471 26.3118 11.6628)" fill="white"/>
<circle cx="10.771" cy="20.7089" r="2.08316" transform="rotate(-36.3471 10.771 20.7089)" fill="white"/>
</g>
</svg>
